<svg xmlns="http://www.w3.org/2000/svg" width="86" height="86" fill="none" viewBox="0 0 86 86">
  <rect width="84" height="84" x="1" y="1" stroke="#667C7E" stroke-dasharray="6 6" stroke-width="1.5" rx="12"/>
  <path fill="#576060" d="M34 39c0 .55.45 1 1 1s1-.45 1-1v-2h2c.55 0 1-.45 1-1s-.45-1-1-1h-2v-2c0-.55-.45-1-1-1s-1 .45-1 1v2h-2c-.55 0-1 .45-1 1s.45 1 1 1h2v2zM44 48a3 3 0 100-6 3 3 0 000 6z"/>
  <path fill="#576060" d="M52 37h-3.17l-1.24-1.35a1.99 1.99 0 00-1.47-.65h-6.4c.17.3.28.63.28 1 0 1.1-.9 2-2 2h-1v1c0 1.1-.9 2-2 2-.37 0-.7-.11-1-.28V51c0 1.1.9 2 2 2h16c1.1 0 2-.9 2-2V39c0-1.1-.9-2-2-2zm-8 13c-2.76 0-5-2.24-5-5s2.24-5 5-5 5 2.24 5 5-2.24 5-5 5z"/>
</svg>
