<svg width="220" height="812" viewBox="0 0 220 812" fill="none" xmlns="http://www.w3.org/2000/svg">
<rect width="220" height="812" fill="white"/>
<path d="M202.084 333.037C202.657 332.438 202.635 331.488 202.037 330.916L192.279 321.587C191.68 321.014 190.73 321.035 190.158 321.634C189.585 322.233 189.607 323.183 190.206 323.755L198.879 332.048L190.587 340.721C190.014 341.32 190.035 342.27 190.634 342.842C191.233 343.415 192.183 343.393 192.755 342.794L202.084 333.037ZM20.2976 570.47C45.6251 565.343 99.0856 532.766 113.979 443.97L111.021 443.473C96.3144 531.152 43.7082 562.67 19.7024 567.53L20.2976 570.47ZM113.979 443.97C128.685 356.296 178.892 333.997 201.034 333.5L200.966 330.5C177.108 331.036 125.915 354.672 111.021 443.473L113.979 443.97Z" fill="#2F2F2F" fill-opacity="0.75"/>
</svg>
