<svg width="184" height="250" viewBox="0 0 184 250" fill="none" xmlns="http://www.w3.org/2000/svg">
<path d="M183.084 12.0366C183.657 11.4378 183.635 10.4883 183.037 9.91579L173.279 0.586616C172.68 0.014132 171.73 0.0354593 171.158 0.634252C170.585 1.23305 170.607 2.18255 171.206 2.75504L179.879 11.0476L171.587 19.7213C171.014 20.3201 171.035 21.2696 171.634 21.8421C172.233 22.4146 173.183 22.3933 173.755 21.7945L183.084 12.0366ZM1.29765 249.47C26.6251 244.343 80.0856 211.766 94.9793 122.97L92.0207 122.473C77.3144 210.152 24.7082 241.67 0.702354 246.53L1.29765 249.47ZM94.9793 122.97C109.685 35.2957 159.892 12.9969 182.034 12.4996L181.966 9.50038C158.108 10.0363 106.915 33.6723 92.0207 122.473L94.9793 122.97Z" fill="#2F2F2F" fill-opacity="0.75"/>
</svg>
