<?xml version="1.0" encoding="UTF-8" ?>
<!DOCTYPE svg PUBLIC "-//W3C//DTD SVG 1.1//EN" "http://www.w3.org/Graphics/SVG/1.1/DTD/svg11.dtd">
<svg width="300pt" height="210pt" viewBox="0 0 300 210" version="1.1" xmlns="http://www.w3.org/2000/svg">
<g id="#0f0f0fff">
<path fill="#0f0f0f" opacity="1.00" d=" M 3.89 5.86 C 7.11 2.18 12.27 1.31 16.91 1.08 C 27.93 0.76 38.95 1.36 49.97 1.06 C 52.81 1.08 55.96 0.82 58.43 2.52 C 59.09 5.14 58.31 8.36 55.91 9.85 C 52.39 12.09 48.07 12.41 44.01 12.51 C 34.55 12.56 25.09 12.39 15.63 12.59 C 14.77 16.65 14.63 20.81 14.83 24.95 C 14.94 37.76 15.91 50.54 16.44 63.34 C 24.72 62.63 32.99 61.68 41.22 60.52 C 43.24 60.41 45.46 59.83 47.35 60.79 C 49.67 63.00 48.92 66.60 48.16 69.34 C 47.23 72.77 43.44 74.00 40.26 74.15 C 32.53 74.58 24.79 74.61 17.07 75.02 C 17.78 90.37 18.29 105.75 20.00 121.04 C 20.47 124.10 20.61 127.79 23.34 129.81 C 26.36 131.10 29.80 130.60 32.91 129.90 C 40.82 127.84 47.76 123.17 54.03 118.06 C 56.70 115.99 58.87 113.11 62.09 111.86 C 65.98 111.76 68.42 115.31 70.11 118.32 C 71.87 102.28 76.75 86.57 84.17 72.25 C 86.60 68.17 88.90 63.68 92.75 60.77 C 96.32 58.98 98.74 62.84 100.24 65.46 C 102.98 66.51 106.58 67.13 107.78 70.21 C 109.11 74.81 107.67 79.68 108.57 84.36 C 109.30 88.21 110.29 92.02 110.65 95.94 C 112.08 109.61 113.62 123.28 116.21 136.79 C 116.46 139.48 117.70 142.61 116.02 145.04 C 112.32 146.68 107.13 145.59 105.13 141.84 C 102.52 137.34 102.26 131.99 101.08 127.03 C 98.80 131.56 96.59 136.29 92.99 139.96 C 90.04 142.84 86.26 145.39 81.95 145.15 C 77.54 145.34 73.63 142.21 71.87 138.34 C 69.78 133.82 69.55 128.73 69.76 123.84 C 65.65 128.88 59.70 131.77 54.32 135.21 C 43.55 142.02 29.72 145.91 17.29 141.76 C 11.28 139.56 6.34 134.34 5.10 127.97 C 2.80 116.83 3.31 105.37 2.59 94.07 C 1.44 73.19 1.15 52.27 0.00 31.40 L 0.00 21.41 C 0.37 16.11 0.30 10.15 3.89 5.86 M 89.59 90.49 C 85.50 103.24 83.44 116.67 83.80 130.06 C 85.32 127.57 86.56 124.90 87.40 122.10 C 91.48 109.13 93.27 95.49 93.44 81.92 C 91.46 84.42 90.63 87.54 89.59 90.49 Z" />
<path fill="#0f0f0f" opacity="1.00" d=" M 130.27 33.84 C 130.50 31.73 131.34 28.67 134.00 28.75 C 139.17 28.11 143.25 33.06 142.98 37.97 C 142.92 45.79 142.29 53.60 141.97 61.41 C 147.01 60.64 151.97 59.05 157.11 59.14 C 158.82 59.15 160.95 60.06 161.08 62.02 C 161.62 65.49 160.47 70.43 156.53 71.34 C 151.59 72.30 146.55 72.65 141.56 73.24 C 140.93 94.79 140.26 116.65 144.76 137.87 C 144.98 139.79 145.64 142.46 143.68 143.73 C 140.33 145.64 136.24 144.45 132.90 143.12 C 129.69 142.10 129.06 138.38 128.65 135.49 C 126.50 115.28 126.71 94.89 127.78 74.61 C 124.56 74.86 121.28 75.59 118.06 74.97 C 114.90 74.18 115.48 70.02 116.79 67.85 C 119.39 64.15 124.37 64.04 128.41 63.37 C 129.14 53.54 129.08 43.64 130.27 33.84 Z" />
</g>
<g id="#74b952ff">
<path fill="#74b952" opacity="1.00" d=" M 284.34 61.16 C 284.41 58.78 286.57 56.42 289.11 57.25 C 293.12 58.00 298.83 59.18 299.34 64.10 C 299.59 74.78 298.83 85.47 297.70 96.09 C 297.26 116.70 298.98 137.31 298.21 157.93 C 297.54 167.52 296.18 177.31 292.08 186.11 C 284.77 199.58 269.98 208.01 254.92 209.37 C 250.97 209.57 246.42 210.38 242.96 207.99 C 241.23 205.87 242.74 203.01 243.88 200.98 C 245.63 197.70 249.71 197.47 252.97 197.23 C 263.12 196.67 273.26 191.32 278.22 182.22 C 285.25 170.37 284.44 156.08 284.46 142.81 C 281.33 144.59 277.71 146.09 274.05 145.08 C 267.46 143.69 263.78 137.11 261.84 131.19 C 257.50 116.89 258.20 101.76 258.12 86.99 C 258.00 80.64 258.50 74.31 258.51 67.97 C 258.52 65.98 258.71 63.77 260.20 62.29 C 263.63 61.34 267.56 62.55 269.81 65.31 C 271.31 67.21 271.10 69.78 271.24 72.05 C 271.32 82.05 271.02 92.05 271.64 102.04 C 272.22 112.08 272.75 122.36 276.26 131.89 C 278.61 127.90 279.52 123.31 280.50 118.85 C 284.16 99.86 284.07 80.42 284.34 61.16 Z" />
<path fill="#74b952" opacity="1.00" d=" M 237.39 60.30 C 241.58 58.10 247.77 58.13 250.79 62.26 C 254.67 67.25 254.09 73.98 254.26 79.94 C 254.12 82.45 254.65 85.98 251.91 87.30 C 248.06 88.00 243.81 86.77 240.99 84.02 C 238.32 81.30 239.50 77.22 239.42 73.85 C 230.31 84.36 226.98 98.32 223.68 111.48 C 222.05 121.56 223.10 131.87 221.67 141.98 C 221.40 144.12 219.13 145.40 217.11 145.15 C 213.16 145.04 208.26 143.30 207.13 139.09 C 206.57 132.38 208.12 125.73 208.46 119.04 C 209.38 104.06 209.89 89.04 209.42 74.04 C 209.27 70.63 209.36 67.20 209.89 63.82 C 213.96 61.99 219.25 63.57 221.67 67.32 C 222.52 70.06 222.56 72.97 222.87 75.80 C 226.75 69.88 231.14 63.91 237.39 60.30 Z" />
<path fill="#74b952" opacity="1.00" d=" M 175.71 64.82 C 181.24 61.72 188.96 63.15 192.72 68.35 C 196.98 73.76 197.15 81.40 194.54 87.58 C 190.85 96.79 184.57 105.29 175.94 110.38 C 176.75 116.77 177.80 123.35 181.07 129.00 C 182.09 130.94 184.80 132.20 186.59 130.46 C 189.56 126.85 189.91 121.62 193.30 118.28 C 194.52 116.94 196.56 117.20 197.98 118.07 C 200.80 119.66 203.67 122.55 202.98 126.10 C 201.89 132.40 197.43 137.79 192.00 140.98 C 185.89 144.74 177.27 143.86 172.13 138.82 C 166.05 133.31 163.83 124.94 162.44 117.15 C 160.50 104.01 161.23 90.23 165.88 77.71 C 167.83 72.63 170.81 67.53 175.71 64.82 M 176.05 94.77 C 180.49 89.36 184.10 82.44 182.39 75.24 C 177.92 80.65 176.76 87.99 176.05 94.77 Z" />
</g>
</svg>
